<svg width="100%" height="100%" viewBox="0 0 250 250" preserveAspectRatio="xMidYMid meet" version="1.1" xmlns="http://www.w3.org/2000/svg">
<line xmlns="http://www.w3.org/2000/svg" x1="0" x2="250" y1="0" y2="0" stroke="black" stroke-width="10" stroke-dasharray="" fill="none"/>
<line xmlns="http://www.w3.org/2000/svg" x1="0" x2="0" y1="0" y2="250" stroke="black" stroke-width="10" stroke-dasharray="" fill="none"/>
<line xmlns="http://www.w3.org/2000/svg" x1="250" x2="250" y1="0" y2="250" stroke="black" stroke-width="10" stroke-dasharray="" fill="none"/>
<line xmlns="http://www.w3.org/2000/svg" x1="0" x2="250" y1="250" y2="250" stroke="black" stroke-width="10" stroke-dasharray="" fill="none"/>
<circle xmlns="http://www.w3.org/2000/svg" cx="25" cy="25" r="10" stroke="black" fill="white" stroke-width="1"/>
<circle xmlns="http://www.w3.org/2000/svg" cx="75" cy="25" r="10" stroke="black" fill="grey" stroke-width="1"/>
<circle xmlns="http://www.w3.org/2000/svg" cx="125" cy="25" r="10" stroke="black" fill="white" stroke-width="1"/>
<circle xmlns="http://www.w3.org/2000/svg" cx="175" cy="25" r="10" stroke="black" fill="grey" stroke-width="1"/>
<circle xmlns="http://www.w3.org/2000/svg" cx="225" cy="25" r="10" stroke="black" fill="grey" stroke-width="1"/>
<circle xmlns="http://www.w3.org/2000/svg" cx="25" cy="75" r="10" stroke="black" fill="grey" stroke-width="1"/>
<circle xmlns="http://www.w3.org/2000/svg" cx="75" cy="75" r="10" stroke="black" fill="grey" stroke-width="1"/>
<circle xmlns="http://www.w3.org/2000/svg" cx="125" cy="75" r="10" stroke="black" fill="grey" stroke-width="1"/>
<circle xmlns="http://www.w3.org/2000/svg" cx="175" cy="75" r="10" stroke="black" fill="white" stroke-width="1"/>
<circle xmlns="http://www.w3.org/2000/svg" cx="225" cy="75" r="10" stroke="black" fill="white" stroke-width="1"/>
<circle xmlns="http://www.w3.org/2000/svg" cx="25" cy="125" r="10" stroke="black" fill="grey" stroke-width="1"/>
<circle xmlns="http://www.w3.org/2000/svg" cx="75" cy="125" r="10" stroke="black" fill="white" stroke-width="1"/>
<circle xmlns="http://www.w3.org/2000/svg" cx="125" cy="125" r="10" stroke="black" fill="grey" stroke-width="1"/>
<circle xmlns="http://www.w3.org/2000/svg" cx="175" cy="125" r="10" stroke="black" fill="grey" stroke-width="1"/>
<circle xmlns="http://www.w3.org/2000/svg" cx="225" cy="125" r="10" stroke="black" fill="grey" stroke-width="1"/>
<circle xmlns="http://www.w3.org/2000/svg" cx="25" cy="175" r="10" stroke="black" fill="grey" stroke-width="1"/>
<circle xmlns="http://www.w3.org/2000/svg" cx="75" cy="175" r="10" stroke="black" fill="grey" stroke-width="1"/>
<circle xmlns="http://www.w3.org/2000/svg" cx="125" cy="175" r="10" stroke="black" fill="grey" stroke-width="1"/>
<circle xmlns="http://www.w3.org/2000/svg" cx="175" cy="175" r="10" stroke="black" fill="grey" stroke-width="1"/>
<circle xmlns="http://www.w3.org/2000/svg" cx="225" cy="175" r="10" stroke="black" fill="grey" stroke-width="1"/>
<circle xmlns="http://www.w3.org/2000/svg" cx="25" cy="225" r="10" stroke="black" fill="grey" stroke-width="1"/>
<circle xmlns="http://www.w3.org/2000/svg" cx="75" cy="225" r="10" stroke="black" fill="grey" stroke-width="1"/>
<circle xmlns="http://www.w3.org/2000/svg" cx="125" cy="225" r="10" stroke="black" fill="grey" stroke-width="1"/>
<circle xmlns="http://www.w3.org/2000/svg" cx="175" cy="225" r="10" stroke="black" fill="grey" stroke-width="1"/>
<circle xmlns="http://www.w3.org/2000/svg" cx="225" cy="225" r="10" stroke="black" fill="grey" stroke-width="1"/>
</svg>